<svg width="107" height="29" viewBox="0 0 107 29" fill="none" xmlns="http://www.w3.org/2000/svg">
<g clip-path="url(#clip0_79_343)">
<path d="M4.81858 12.2754V10.4147H1.96582V23.1532H4.96242V16.9748C4.96242 14.3747 6.40079 13.0388 8.6782 13.0388C8.89396 13.0388 9.10971 13.0626 9.37342 13.1103V10.2716C7.23984 10.2716 5.6816 10.9396 4.81858 12.2754ZM20.4709 10.4147V16.8556C20.4709 19.408 19.0565 20.6962 16.9709 20.6962C15.0771 20.6962 13.9743 19.5989 13.9743 17.2849V10.4147H10.9777V17.6905C10.9777 21.5311 13.2072 23.3202 16.4915 23.3202C18.1456 23.3202 19.6559 22.7 20.6148 21.5311V23.1532H23.4675V10.4147H20.4709ZM33.6959 10.2716C31.8261 10.2716 30.2678 10.8918 29.2849 12.0607V10.4147H26.4322V23.1532H29.4288V16.7124C29.4288 14.16 30.8671 12.8718 33.0007 12.8718C34.9186 12.8718 36.0453 13.9691 36.0453 16.2353V23.1532H39.0419V15.8537C39.0419 12.013 36.7645 10.2716 33.6959 10.2716ZM48.9802 10.2716C47.3501 10.2716 45.9117 10.8203 44.8809 11.9653V5.45294H41.8843V23.1532H44.7371V21.5072C45.7439 22.7238 47.2302 23.3202 48.9802 23.3202C52.72 23.3202 55.4769 20.7439 55.4769 16.784C55.4769 12.8241 52.72 10.2716 48.9802 10.2716ZM48.6446 20.7677C46.4871 20.7677 44.833 19.2172 44.833 16.784C44.833 14.3508 46.4871 12.8002 48.6446 12.8002C50.8022 12.8002 52.4323 14.3508 52.4323 16.784C52.4323 19.2172 50.8022 20.7677 48.6446 20.7677ZM62.0863 10.2716C60.0247 10.2716 58.0349 10.7964 56.6685 11.846L57.8431 14.0168C58.802 13.2296 60.2884 12.7525 61.7267 12.7525C63.8603 12.7525 64.9151 13.7783 64.9151 15.5197V15.7105H61.6069C57.7233 15.7105 56.2849 17.3804 56.2849 19.5034C56.2849 21.7219 58.1308 23.3202 61.0555 23.3202C62.9733 23.3202 64.3637 22.7 65.0829 21.6027V23.1532H67.9117V15.6867C67.9117 12.013 65.7781 10.2716 62.0863 10.2716ZM61.6788 21.1494C60.1445 21.1494 59.2336 20.4576 59.2336 19.3842C59.2336 18.4538 59.7849 17.6905 61.8226 17.6905H64.9151V19.1695C64.4117 20.4815 63.1411 21.1494 61.6788 21.1494ZM74.7541 23.3202C78.35 23.3202 80.5555 21.7697 80.5555 19.3842C80.5555 14.3985 72.6444 16.6886 72.6444 14.1122C72.6444 13.2773 73.5075 12.681 75.3294 12.681C76.552 12.681 77.7746 12.9195 78.9972 13.6352L80.1479 11.3689C78.9972 10.6772 77.0554 10.2716 75.3534 10.2716C71.9013 10.2716 69.7198 11.846 69.7198 14.2554C69.7198 19.3365 77.6308 17.0464 77.6308 19.4796C77.6308 20.3622 76.8397 20.887 74.9458 20.887C73.3397 20.887 71.6136 20.3622 70.4869 19.6227L69.3362 21.8889C70.4869 22.7 72.6205 23.3202 74.7541 23.3202ZM94.2117 16.8556C94.2117 12.8718 91.4788 10.2716 87.7391 10.2716C83.9274 10.2716 81.1226 12.9911 81.1226 16.784C81.1226 20.5769 83.9034 23.3202 88.1946 23.3202C90.4001 23.3202 92.198 22.6046 93.3487 21.2448L91.7425 19.408C90.8316 20.3384 89.7049 20.7916 88.2665 20.7916C86.037 20.7916 84.4788 19.5989 84.1192 17.7382H94.1638C94.1878 17.4519 94.2117 17.0941 94.2117 16.8556ZM87.7391 12.6571C89.7049 12.6571 91.1193 13.9214 91.359 15.7582H84.0952C84.3829 13.8976 85.7973 12.6571 87.7391 12.6571Z" fill="black" fill-opacity="0.87"/>
<path d="M96.5962 10.0565H101.286L106.303 15.0882C106.709 15.4937 106.937 16.0395 106.937 16.608C106.937 17.1766 106.709 17.7224 106.303 18.1279L101.286 23.1532H96.5962L103.121 16.6048L96.5962 10.0565Z" fill="#006BFF"/>
</g>
<defs>
<clipPath id="clip0_79_343">
<rect width="106.938" height="29" fill="white"/>
</clipPath>
</defs>
</svg>
